M48
;DRILL file {Pcbnew (2013-mar-13)-testing} date Tue 26 Mar 2013 09:26:03 PM EDT
;FORMAT={-:-/ absolute / inch / decimal}
FMAT,2
INCH,TZ
T1C0.020
%
G90
G05
M72
T1
X6.44Y-5.686
X6.478Y-5.604
X6.514Y-5.598
X6.5175Y-5.52
X6.53Y-5.565
X6.53Y-5.69
X6.548Y-5.656
X6.562Y-5.4
X6.698Y-5.814
X6.774Y-5.482
X6.876Y-5.698
X6.88Y-5.5
X6.918Y-5.722
X6.9425Y-5.45
X7.03Y-5.54
X7.0375Y-5.5075
X7.084Y-5.64
X7.084Y-5.674
X7.09Y-5.568
X7.124Y-5.542
X7.13Y-5.598
X7.146Y-5.808
X7.21Y-5.416
X7.572Y-5.598
T0
M30
