G04 (created by PCBNEW (2013-mar-13)-testing) date Tue 26 Mar 2013 09:26:07 PM EDT*
%MOIN*%
G04 Gerber Fmt 3.4, Leading zero omitted, Abs format*
%FSLAX34Y34*%
G01*
G70*
G90*
G04 APERTURE LIST*
%ADD10C,0.006*%
%ADD11C,0.005*%
%ADD12C,0.004*%
%ADD13C,0.008*%
G04 APERTURE END LIST*
G54D10*
G54D11*
X75526Y-56739D02*
X75699Y-56739D01*
X75730Y-56754D01*
X75746Y-56786D01*
X75746Y-56849D01*
X75730Y-56880D01*
X75542Y-56739D02*
X75526Y-56770D01*
X75526Y-56849D01*
X75542Y-56880D01*
X75573Y-56896D01*
X75605Y-56896D01*
X75636Y-56880D01*
X75652Y-56849D01*
X75652Y-56770D01*
X75667Y-56739D01*
X75746Y-56582D02*
X75526Y-56582D01*
X75715Y-56582D02*
X75730Y-56566D01*
X75746Y-56535D01*
X75746Y-56487D01*
X75730Y-56456D01*
X75699Y-56440D01*
X75526Y-56440D01*
X75746Y-56330D02*
X75746Y-56205D01*
X75856Y-56283D02*
X75573Y-56283D01*
X75542Y-56267D01*
X75526Y-56236D01*
X75526Y-56205D01*
X75526Y-56095D02*
X75746Y-56095D01*
X75856Y-56095D02*
X75840Y-56110D01*
X75825Y-56095D01*
X75840Y-56079D01*
X75856Y-56095D01*
X75825Y-56095D01*
X75620Y-55953D02*
X75620Y-55796D01*
X75526Y-55985D02*
X75856Y-55875D01*
X75526Y-55765D01*
X75699Y-55545D02*
X75699Y-55655D01*
X75526Y-55655D02*
X75856Y-55655D01*
X75856Y-55497D01*
X75526Y-55372D02*
X75856Y-55372D01*
X75526Y-55183D02*
X75715Y-55325D01*
X75856Y-55183D02*
X75667Y-55372D01*
X75328Y-58043D02*
X75344Y-58074D01*
X75344Y-58122D01*
X75328Y-58169D01*
X75297Y-58200D01*
X75265Y-58216D01*
X75203Y-58232D01*
X75155Y-58232D01*
X75093Y-58216D01*
X75061Y-58200D01*
X75030Y-58169D01*
X75014Y-58122D01*
X75014Y-58090D01*
X75030Y-58043D01*
X75045Y-58027D01*
X75155Y-58027D01*
X75155Y-58090D01*
X75014Y-57744D02*
X75187Y-57744D01*
X75218Y-57760D01*
X75234Y-57792D01*
X75234Y-57854D01*
X75218Y-57886D01*
X75030Y-57744D02*
X75014Y-57776D01*
X75014Y-57854D01*
X75030Y-57886D01*
X75061Y-57902D01*
X75093Y-57902D01*
X75124Y-57886D01*
X75140Y-57854D01*
X75140Y-57776D01*
X75155Y-57744D01*
X75014Y-57540D02*
X75030Y-57572D01*
X75061Y-57587D01*
X75344Y-57587D01*
X75234Y-57446D02*
X75014Y-57367D01*
X75234Y-57289D01*
X75014Y-57022D02*
X75187Y-57022D01*
X75218Y-57037D01*
X75234Y-57069D01*
X75234Y-57132D01*
X75218Y-57163D01*
X75030Y-57022D02*
X75014Y-57053D01*
X75014Y-57132D01*
X75030Y-57163D01*
X75061Y-57179D01*
X75093Y-57179D01*
X75124Y-57163D01*
X75140Y-57132D01*
X75140Y-57053D01*
X75155Y-57022D01*
X75234Y-56865D02*
X75014Y-56865D01*
X75203Y-56865D02*
X75218Y-56849D01*
X75234Y-56817D01*
X75234Y-56770D01*
X75218Y-56739D01*
X75187Y-56723D01*
X75014Y-56723D01*
X75234Y-56613D02*
X75234Y-56487D01*
X75344Y-56566D02*
X75061Y-56566D01*
X75030Y-56550D01*
X75014Y-56519D01*
X75014Y-56487D01*
X75014Y-56126D02*
X75344Y-56126D01*
X75234Y-55969D02*
X75014Y-55969D01*
X75203Y-55969D02*
X75218Y-55953D01*
X75234Y-55922D01*
X75234Y-55875D01*
X75218Y-55843D01*
X75187Y-55827D01*
X75014Y-55827D01*
X75014Y-55529D02*
X75344Y-55529D01*
X75030Y-55529D02*
X75014Y-55560D01*
X75014Y-55623D01*
X75030Y-55655D01*
X75045Y-55670D01*
X75077Y-55686D01*
X75171Y-55686D01*
X75203Y-55670D01*
X75218Y-55655D01*
X75234Y-55623D01*
X75234Y-55560D01*
X75218Y-55529D01*
X75234Y-55230D02*
X75014Y-55230D01*
X75234Y-55372D02*
X75061Y-55372D01*
X75030Y-55356D01*
X75014Y-55325D01*
X75014Y-55277D01*
X75030Y-55246D01*
X75045Y-55230D01*
X75030Y-55089D02*
X75014Y-55057D01*
X75014Y-54995D01*
X75030Y-54963D01*
X75061Y-54947D01*
X75077Y-54947D01*
X75108Y-54963D01*
X75124Y-54995D01*
X75124Y-55042D01*
X75140Y-55073D01*
X75171Y-55089D01*
X75187Y-55089D01*
X75218Y-55073D01*
X75234Y-55042D01*
X75234Y-54995D01*
X75218Y-54963D01*
X75234Y-54853D02*
X75234Y-54727D01*
X75344Y-54806D02*
X75061Y-54806D01*
X75030Y-54790D01*
X75014Y-54759D01*
X75014Y-54727D01*
X75014Y-54617D02*
X75234Y-54617D01*
X75171Y-54617D02*
X75203Y-54602D01*
X75218Y-54586D01*
X75234Y-54555D01*
X75234Y-54523D01*
X75014Y-54413D02*
X75234Y-54413D01*
X75344Y-54413D02*
X75328Y-54429D01*
X75313Y-54413D01*
X75328Y-54397D01*
X75344Y-54413D01*
X75313Y-54413D01*
X75030Y-54130D02*
X75014Y-54162D01*
X75014Y-54225D01*
X75030Y-54256D01*
X75061Y-54272D01*
X75187Y-54272D01*
X75218Y-54256D01*
X75234Y-54225D01*
X75234Y-54162D01*
X75218Y-54130D01*
X75187Y-54115D01*
X75155Y-54115D01*
X75124Y-54272D01*
X75030Y-53989D02*
X75014Y-53957D01*
X75014Y-53895D01*
X75030Y-53863D01*
X75061Y-53847D01*
X75077Y-53847D01*
X75108Y-53863D01*
X75124Y-53895D01*
X75124Y-53942D01*
X75140Y-53973D01*
X75171Y-53989D01*
X75187Y-53989D01*
X75218Y-53973D01*
X75234Y-53942D01*
X75234Y-53895D01*
X75218Y-53863D01*
X74801Y-57242D02*
X74816Y-57226D01*
X74832Y-57195D01*
X74832Y-57116D01*
X74816Y-57085D01*
X74801Y-57069D01*
X74769Y-57053D01*
X74738Y-57053D01*
X74691Y-57069D01*
X74502Y-57257D01*
X74502Y-57053D01*
X74832Y-56849D02*
X74832Y-56817D01*
X74816Y-56786D01*
X74801Y-56770D01*
X74769Y-56755D01*
X74706Y-56739D01*
X74628Y-56739D01*
X74565Y-56755D01*
X74533Y-56770D01*
X74518Y-56786D01*
X74502Y-56817D01*
X74502Y-56849D01*
X74518Y-56880D01*
X74533Y-56896D01*
X74565Y-56912D01*
X74628Y-56927D01*
X74706Y-56927D01*
X74769Y-56912D01*
X74801Y-56896D01*
X74816Y-56880D01*
X74832Y-56849D01*
X74502Y-56425D02*
X74502Y-56613D01*
X74502Y-56519D02*
X74832Y-56519D01*
X74785Y-56550D01*
X74753Y-56582D01*
X74738Y-56613D01*
X74832Y-56315D02*
X74832Y-56110D01*
X74706Y-56220D01*
X74706Y-56173D01*
X74691Y-56142D01*
X74675Y-56126D01*
X74643Y-56110D01*
X74565Y-56110D01*
X74533Y-56126D01*
X74518Y-56142D01*
X74502Y-56173D01*
X74502Y-56267D01*
X74518Y-56299D01*
X74533Y-56315D01*
X74502Y-55717D02*
X74722Y-55717D01*
X74659Y-55717D02*
X74691Y-55702D01*
X74706Y-55686D01*
X74722Y-55654D01*
X74722Y-55623D01*
X74518Y-55387D02*
X74502Y-55419D01*
X74502Y-55482D01*
X74518Y-55513D01*
X74549Y-55529D01*
X74675Y-55529D01*
X74706Y-55513D01*
X74722Y-55482D01*
X74722Y-55419D01*
X74706Y-55387D01*
X74675Y-55372D01*
X74643Y-55372D01*
X74612Y-55529D01*
X74722Y-55262D02*
X74502Y-55183D01*
X74722Y-55104D01*
X74596Y-54994D02*
X74596Y-54837D01*
X74502Y-55026D02*
X74832Y-54916D01*
X74502Y-54806D01*
G54D12*
X71460Y-54669D02*
X71365Y-54602D01*
X71460Y-54555D02*
X71260Y-54555D01*
X71260Y-54631D01*
X71270Y-54650D01*
X71280Y-54660D01*
X71299Y-54669D01*
X71327Y-54669D01*
X71346Y-54660D01*
X71356Y-54650D01*
X71365Y-54631D01*
X71365Y-54555D01*
X71356Y-54755D02*
X71356Y-54821D01*
X71460Y-54850D02*
X71460Y-54755D01*
X71260Y-54755D01*
X71260Y-54850D01*
X71451Y-54926D02*
X71460Y-54955D01*
X71460Y-55002D01*
X71451Y-55021D01*
X71441Y-55031D01*
X71422Y-55040D01*
X71403Y-55040D01*
X71384Y-55031D01*
X71375Y-55021D01*
X71365Y-55002D01*
X71356Y-54964D01*
X71346Y-54945D01*
X71337Y-54936D01*
X71318Y-54926D01*
X71299Y-54926D01*
X71280Y-54936D01*
X71270Y-54945D01*
X71260Y-54964D01*
X71260Y-55012D01*
X71270Y-55040D01*
X71356Y-55126D02*
X71356Y-55193D01*
X71460Y-55221D02*
X71460Y-55126D01*
X71260Y-55126D01*
X71260Y-55221D01*
X71260Y-55279D02*
X71260Y-55393D01*
X71460Y-55336D02*
X71260Y-55336D01*
X71451Y-55682D02*
X71460Y-55711D01*
X71460Y-55759D01*
X71451Y-55778D01*
X71441Y-55787D01*
X71422Y-55797D01*
X71403Y-55797D01*
X71384Y-55787D01*
X71375Y-55778D01*
X71365Y-55759D01*
X71356Y-55720D01*
X71346Y-55701D01*
X71337Y-55692D01*
X71318Y-55682D01*
X71299Y-55682D01*
X71280Y-55692D01*
X71270Y-55701D01*
X71260Y-55720D01*
X71260Y-55768D01*
X71270Y-55797D01*
X71441Y-55997D02*
X71451Y-55987D01*
X71460Y-55959D01*
X71460Y-55940D01*
X71451Y-55911D01*
X71432Y-55892D01*
X71413Y-55882D01*
X71375Y-55873D01*
X71346Y-55873D01*
X71308Y-55882D01*
X71289Y-55892D01*
X71270Y-55911D01*
X71260Y-55940D01*
X71260Y-55959D01*
X71270Y-55987D01*
X71280Y-55997D01*
X71460Y-56082D02*
X71260Y-56082D01*
X71460Y-56197D02*
X71346Y-56111D01*
X71260Y-56197D02*
X71375Y-56082D01*
X71460Y-56625D02*
X71260Y-56625D01*
X71403Y-56692D01*
X71260Y-56759D01*
X71460Y-56759D01*
X71460Y-56854D02*
X71260Y-56854D01*
X71451Y-56940D02*
X71460Y-56968D01*
X71460Y-57016D01*
X71451Y-57035D01*
X71441Y-57044D01*
X71422Y-57054D01*
X71403Y-57054D01*
X71384Y-57044D01*
X71375Y-57035D01*
X71365Y-57016D01*
X71356Y-56978D01*
X71346Y-56959D01*
X71337Y-56949D01*
X71318Y-56940D01*
X71299Y-56940D01*
X71280Y-56949D01*
X71270Y-56959D01*
X71260Y-56978D01*
X71260Y-57025D01*
X71270Y-57054D01*
X71260Y-57178D02*
X71260Y-57216D01*
X71270Y-57235D01*
X71289Y-57254D01*
X71327Y-57263D01*
X71394Y-57263D01*
X71432Y-57254D01*
X71451Y-57235D01*
X71460Y-57216D01*
X71460Y-57178D01*
X71451Y-57159D01*
X71432Y-57140D01*
X71394Y-57130D01*
X71327Y-57130D01*
X71289Y-57140D01*
X71270Y-57159D01*
X71260Y-57178D01*
X73929Y-55092D02*
X73939Y-55111D01*
X73939Y-55140D01*
X73929Y-55168D01*
X73910Y-55187D01*
X73891Y-55197D01*
X73853Y-55206D01*
X73824Y-55206D01*
X73786Y-55197D01*
X73767Y-55187D01*
X73748Y-55168D01*
X73739Y-55140D01*
X73739Y-55120D01*
X73748Y-55092D01*
X73758Y-55082D01*
X73824Y-55082D01*
X73824Y-55120D01*
X73739Y-54997D02*
X73939Y-54997D01*
X73739Y-54882D01*
X73939Y-54882D01*
X73739Y-54787D02*
X73939Y-54787D01*
X73939Y-54740D01*
X73929Y-54711D01*
X73910Y-54692D01*
X73891Y-54682D01*
X73853Y-54673D01*
X73824Y-54673D01*
X73786Y-54682D01*
X73767Y-54692D01*
X73748Y-54711D01*
X73739Y-54740D01*
X73739Y-54787D01*
X73719Y-56274D02*
X73919Y-56274D01*
X73776Y-56207D01*
X73919Y-56140D01*
X73719Y-56140D01*
X73919Y-56007D02*
X73919Y-55969D01*
X73909Y-55950D01*
X73890Y-55931D01*
X73852Y-55921D01*
X73785Y-55921D01*
X73747Y-55931D01*
X73728Y-55950D01*
X73719Y-55969D01*
X73719Y-56007D01*
X73728Y-56026D01*
X73747Y-56045D01*
X73785Y-56055D01*
X73852Y-56055D01*
X73890Y-56045D01*
X73909Y-56026D01*
X73919Y-56007D01*
X73728Y-55845D02*
X73719Y-55817D01*
X73719Y-55769D01*
X73728Y-55750D01*
X73738Y-55740D01*
X73757Y-55731D01*
X73776Y-55731D01*
X73795Y-55740D01*
X73804Y-55750D01*
X73814Y-55769D01*
X73823Y-55807D01*
X73833Y-55826D01*
X73842Y-55836D01*
X73861Y-55845D01*
X73880Y-55845D01*
X73900Y-55836D01*
X73909Y-55826D01*
X73919Y-55807D01*
X73919Y-55760D01*
X73909Y-55731D01*
X73719Y-55645D02*
X73919Y-55645D01*
G54D11*
X73958Y-56997D02*
X73958Y-57139D01*
X73815Y-57154D01*
X73830Y-57139D01*
X73844Y-57111D01*
X73844Y-57039D01*
X73830Y-57011D01*
X73815Y-56997D01*
X73787Y-56982D01*
X73715Y-56982D01*
X73687Y-56997D01*
X73672Y-57011D01*
X73658Y-57039D01*
X73658Y-57111D01*
X73672Y-57139D01*
X73687Y-57154D01*
X73958Y-56897D02*
X73658Y-56797D01*
X73958Y-56697D01*
G54D13*
X71560Y-54480D02*
X71560Y-57480D01*
X73560Y-57480D02*
X73560Y-54480D01*
X73560Y-54480D02*
X71560Y-54480D01*
X71560Y-57480D02*
X73560Y-57480D01*
M02*
