G04 (created by PCBNEW (2013-mar-13)-testing) date Tue 26 Mar 2013 09:26:07 PM EDT*
%MOIN*%
G04 Gerber Fmt 3.4, Leading zero omitted, Abs format*
%FSLAX34Y34*%
G01*
G70*
G90*
G04 APERTURE LIST*
%ADD10C,0.006*%
%ADD11R,0.06X0.06*%
%ADD12C,0.06*%
%ADD13C,0.025*%
%ADD14C,0.01*%
G04 APERTURE END LIST*
G54D10*
G54D11*
X72060Y-56980D03*
G54D12*
X73060Y-56980D03*
X72060Y-55980D03*
X73060Y-55980D03*
X72060Y-54980D03*
X73060Y-54980D03*
G54D13*
X68800Y-55000D03*
X70840Y-56400D03*
X70300Y-55400D03*
X69425Y-54500D03*
X70375Y-55075D03*
X65620Y-54000D03*
X75720Y-55980D03*
X67740Y-54820D03*
X72100Y-54160D03*
X70840Y-56740D03*
X68760Y-56980D03*
X65300Y-56900D03*
X71300Y-55980D03*
X70900Y-55680D03*
X64400Y-56860D03*
X65175Y-55200D03*
X64780Y-56040D03*
X65300Y-55650D03*
X65480Y-56560D03*
X65140Y-55980D03*
X71460Y-58080D03*
X66980Y-58140D03*
X69180Y-57220D03*
X71240Y-55420D03*
G54D14*
X70840Y-56400D02*
X70949Y-56400D01*
X72620Y-57420D02*
X73060Y-56980D01*
X71690Y-57420D02*
X72620Y-57420D01*
X71120Y-56849D02*
X71690Y-57420D01*
X71120Y-56570D02*
X71120Y-56849D01*
X70949Y-56400D02*
X71120Y-56570D01*
X69200Y-55400D02*
X70300Y-55400D01*
X68800Y-55000D02*
X69200Y-55400D01*
X70840Y-56400D02*
X70840Y-56360D01*
X70840Y-56360D02*
X70300Y-55820D01*
X70300Y-55820D02*
X70300Y-55400D01*
X69800Y-54500D02*
X69425Y-54500D01*
X70375Y-55075D02*
X69800Y-54500D01*
X67740Y-54820D02*
X67740Y-55960D01*
X67740Y-55960D02*
X68760Y-56980D01*
X68320Y-54240D02*
X67740Y-54820D01*
X72020Y-54240D02*
X68320Y-54240D01*
X72100Y-54160D02*
X72020Y-54240D01*
X70840Y-56740D02*
X69000Y-56740D01*
X69000Y-56740D02*
X68760Y-56980D01*
X68760Y-56980D02*
X65380Y-56980D01*
X65380Y-56980D02*
X65300Y-56900D01*
X71300Y-55980D02*
X71300Y-56620D01*
X71660Y-56980D02*
X72060Y-56980D01*
X71300Y-56620D02*
X71660Y-56980D01*
X70900Y-55680D02*
X71380Y-55680D01*
X72600Y-56440D02*
X73060Y-55980D01*
X71860Y-56440D02*
X72600Y-56440D01*
X71620Y-56200D02*
X71860Y-56440D01*
X71620Y-55920D02*
X71620Y-56200D01*
X71380Y-55680D02*
X71620Y-55920D01*
X70900Y-55680D02*
X70940Y-55720D01*
X65100Y-55200D02*
X64400Y-55900D01*
X64400Y-55900D02*
X64400Y-56860D01*
X65175Y-55200D02*
X65100Y-55200D01*
X65050Y-55650D02*
X65300Y-55650D01*
X64820Y-55880D02*
X65050Y-55650D01*
X64820Y-56000D02*
X64820Y-55880D01*
X64780Y-56040D02*
X64820Y-56000D01*
X65290Y-55640D02*
X65300Y-55650D01*
X65480Y-56320D02*
X65480Y-56560D01*
X65140Y-55980D02*
X65480Y-56320D01*
X67040Y-58080D02*
X71460Y-58080D01*
X66980Y-58140D02*
X67040Y-58080D01*
X72520Y-55440D02*
X72060Y-54980D01*
X73300Y-55440D02*
X72520Y-55440D01*
X73520Y-55660D02*
X73300Y-55440D01*
X73520Y-57280D02*
X73520Y-55660D01*
X73180Y-57620D02*
X73520Y-57280D01*
X69580Y-57620D02*
X73180Y-57620D01*
X69180Y-57220D02*
X69580Y-57620D01*
X71240Y-55420D02*
X71580Y-55420D01*
X72060Y-55900D02*
X72060Y-55980D01*
X71580Y-55420D02*
X72060Y-55900D01*
G54D10*
G36*
X76250Y-58250D02*
X71670Y-58258D01*
X71692Y-58235D01*
X71734Y-58134D01*
X71735Y-58025D01*
X71693Y-57924D01*
X71615Y-57847D01*
X71550Y-57820D01*
X73180Y-57820D01*
X73256Y-57804D01*
X73321Y-57761D01*
X73661Y-57421D01*
X73661Y-57421D01*
X73690Y-57378D01*
X73704Y-57356D01*
X73704Y-57356D01*
X73719Y-57280D01*
X73720Y-57280D01*
X73720Y-55660D01*
X73704Y-55583D01*
X73704Y-55583D01*
X73690Y-55561D01*
X73661Y-55518D01*
X73661Y-55518D01*
X73620Y-55477D01*
X73487Y-55344D01*
X73620Y-55211D01*
X73774Y-55057D01*
X73606Y-54890D01*
X73585Y-54783D01*
X73502Y-54750D01*
X73289Y-54962D01*
X73289Y-54537D01*
X73256Y-54454D01*
X73040Y-54419D01*
X72863Y-54454D01*
X72830Y-54537D01*
X73060Y-54767D01*
X73289Y-54537D01*
X73289Y-54962D01*
X73272Y-54980D01*
X73378Y-55086D01*
X73224Y-55240D01*
X73107Y-55240D01*
X73060Y-55192D01*
X73012Y-55240D01*
X72895Y-55240D01*
X72741Y-55086D01*
X72847Y-54980D01*
X72617Y-54750D01*
X72534Y-54783D01*
X72518Y-54885D01*
X72510Y-54893D01*
X72510Y-54890D01*
X72441Y-54725D01*
X72315Y-54598D01*
X72149Y-54530D01*
X71970Y-54529D01*
X71805Y-54598D01*
X71678Y-54724D01*
X71610Y-54890D01*
X71609Y-55069D01*
X71678Y-55234D01*
X71804Y-55361D01*
X71970Y-55429D01*
X72149Y-55430D01*
X72204Y-55407D01*
X72378Y-55581D01*
X72443Y-55624D01*
X72443Y-55624D01*
X72520Y-55640D01*
X72763Y-55640D01*
X72678Y-55724D01*
X72610Y-55890D01*
X72609Y-56069D01*
X72632Y-56124D01*
X72517Y-56240D01*
X72436Y-56240D01*
X72441Y-56235D01*
X72509Y-56069D01*
X72510Y-55890D01*
X72441Y-55725D01*
X72315Y-55598D01*
X72149Y-55530D01*
X71972Y-55529D01*
X71721Y-55278D01*
X71656Y-55235D01*
X71580Y-55220D01*
X71428Y-55220D01*
X71395Y-55187D01*
X71294Y-55145D01*
X71185Y-55144D01*
X71084Y-55186D01*
X71007Y-55264D01*
X70965Y-55365D01*
X70965Y-55409D01*
X70954Y-55405D01*
X70845Y-55404D01*
X70744Y-55446D01*
X70667Y-55524D01*
X70625Y-55625D01*
X70624Y-55734D01*
X70666Y-55835D01*
X70744Y-55912D01*
X70845Y-55954D01*
X70954Y-55955D01*
X71025Y-55925D01*
X71024Y-56034D01*
X71066Y-56135D01*
X71100Y-56168D01*
X71100Y-56267D01*
X71091Y-56258D01*
X71074Y-56247D01*
X71073Y-56244D01*
X70995Y-56167D01*
X70894Y-56125D01*
X70887Y-56125D01*
X70500Y-55737D01*
X70500Y-55588D01*
X70532Y-55555D01*
X70574Y-55454D01*
X70575Y-55345D01*
X70551Y-55287D01*
X70607Y-55230D01*
X70649Y-55129D01*
X70650Y-55020D01*
X70608Y-54919D01*
X70530Y-54842D01*
X70429Y-54800D01*
X70382Y-54800D01*
X69941Y-54358D01*
X69876Y-54315D01*
X69800Y-54300D01*
X69613Y-54300D01*
X69580Y-54267D01*
X69479Y-54225D01*
X69370Y-54224D01*
X69269Y-54266D01*
X69192Y-54344D01*
X69150Y-54445D01*
X69149Y-54554D01*
X69191Y-54655D01*
X69269Y-54732D01*
X69370Y-54774D01*
X69479Y-54775D01*
X69580Y-54733D01*
X69613Y-54700D01*
X69717Y-54700D01*
X70099Y-55082D01*
X70099Y-55129D01*
X70123Y-55187D01*
X70111Y-55200D01*
X69282Y-55200D01*
X69075Y-54992D01*
X69075Y-54945D01*
X69033Y-54844D01*
X68955Y-54767D01*
X68854Y-54725D01*
X68745Y-54724D01*
X68644Y-54766D01*
X68567Y-54844D01*
X68525Y-54945D01*
X68524Y-55054D01*
X68566Y-55155D01*
X68644Y-55232D01*
X68745Y-55274D01*
X68792Y-55274D01*
X69058Y-55541D01*
X69058Y-55541D01*
X69101Y-55570D01*
X69123Y-55584D01*
X69123Y-55584D01*
X69199Y-55599D01*
X69200Y-55600D01*
X70100Y-55600D01*
X70100Y-55820D01*
X70115Y-55896D01*
X70158Y-55961D01*
X70565Y-56367D01*
X70564Y-56454D01*
X70606Y-56555D01*
X70684Y-56632D01*
X70785Y-56674D01*
X70894Y-56675D01*
X70920Y-56664D01*
X70920Y-56849D01*
X70935Y-56926D01*
X70978Y-56991D01*
X71407Y-57420D01*
X69662Y-57420D01*
X69455Y-57212D01*
X69455Y-57165D01*
X69413Y-57064D01*
X69335Y-56987D01*
X69234Y-56945D01*
X69125Y-56944D01*
X69024Y-56986D01*
X68947Y-57064D01*
X68905Y-57165D01*
X68904Y-57274D01*
X68946Y-57375D01*
X69024Y-57452D01*
X69125Y-57494D01*
X69172Y-57494D01*
X69438Y-57761D01*
X69438Y-57761D01*
X69481Y-57790D01*
X69503Y-57804D01*
X69503Y-57804D01*
X69579Y-57819D01*
X69580Y-57820D01*
X71369Y-57820D01*
X71304Y-57846D01*
X71271Y-57880D01*
X67070Y-57880D01*
X67034Y-57865D01*
X66925Y-57864D01*
X66824Y-57906D01*
X66747Y-57984D01*
X66705Y-58085D01*
X66704Y-58194D01*
X66735Y-58267D01*
X65430Y-58269D01*
X65430Y-56834D01*
X65534Y-56835D01*
X65635Y-56793D01*
X65712Y-56715D01*
X65754Y-56614D01*
X65755Y-56505D01*
X65713Y-56404D01*
X65680Y-56371D01*
X65680Y-56320D01*
X65679Y-56319D01*
X65664Y-56243D01*
X65664Y-56243D01*
X65650Y-56221D01*
X65621Y-56178D01*
X65621Y-56178D01*
X65430Y-55987D01*
X65430Y-55893D01*
X65455Y-55883D01*
X65532Y-55805D01*
X65574Y-55704D01*
X65575Y-55595D01*
X65533Y-55494D01*
X65455Y-55417D01*
X65430Y-55406D01*
X65430Y-55302D01*
X65449Y-55254D01*
X65450Y-55145D01*
X65430Y-55097D01*
X65430Y-53970D01*
X76250Y-53970D01*
X76250Y-58250D01*
X76250Y-58250D01*
G37*
G54D14*
X76250Y-58250D02*
X71670Y-58258D01*
X71692Y-58235D01*
X71734Y-58134D01*
X71735Y-58025D01*
X71693Y-57924D01*
X71615Y-57847D01*
X71550Y-57820D01*
X73180Y-57820D01*
X73256Y-57804D01*
X73321Y-57761D01*
X73661Y-57421D01*
X73661Y-57421D01*
X73690Y-57378D01*
X73704Y-57356D01*
X73704Y-57356D01*
X73719Y-57280D01*
X73720Y-57280D01*
X73720Y-55660D01*
X73704Y-55583D01*
X73704Y-55583D01*
X73690Y-55561D01*
X73661Y-55518D01*
X73661Y-55518D01*
X73620Y-55477D01*
X73487Y-55344D01*
X73620Y-55211D01*
X73774Y-55057D01*
X73606Y-54890D01*
X73585Y-54783D01*
X73502Y-54750D01*
X73289Y-54962D01*
X73289Y-54537D01*
X73256Y-54454D01*
X73040Y-54419D01*
X72863Y-54454D01*
X72830Y-54537D01*
X73060Y-54767D01*
X73289Y-54537D01*
X73289Y-54962D01*
X73272Y-54980D01*
X73378Y-55086D01*
X73224Y-55240D01*
X73107Y-55240D01*
X73060Y-55192D01*
X73012Y-55240D01*
X72895Y-55240D01*
X72741Y-55086D01*
X72847Y-54980D01*
X72617Y-54750D01*
X72534Y-54783D01*
X72518Y-54885D01*
X72510Y-54893D01*
X72510Y-54890D01*
X72441Y-54725D01*
X72315Y-54598D01*
X72149Y-54530D01*
X71970Y-54529D01*
X71805Y-54598D01*
X71678Y-54724D01*
X71610Y-54890D01*
X71609Y-55069D01*
X71678Y-55234D01*
X71804Y-55361D01*
X71970Y-55429D01*
X72149Y-55430D01*
X72204Y-55407D01*
X72378Y-55581D01*
X72443Y-55624D01*
X72443Y-55624D01*
X72520Y-55640D01*
X72763Y-55640D01*
X72678Y-55724D01*
X72610Y-55890D01*
X72609Y-56069D01*
X72632Y-56124D01*
X72517Y-56240D01*
X72436Y-56240D01*
X72441Y-56235D01*
X72509Y-56069D01*
X72510Y-55890D01*
X72441Y-55725D01*
X72315Y-55598D01*
X72149Y-55530D01*
X71972Y-55529D01*
X71721Y-55278D01*
X71656Y-55235D01*
X71580Y-55220D01*
X71428Y-55220D01*
X71395Y-55187D01*
X71294Y-55145D01*
X71185Y-55144D01*
X71084Y-55186D01*
X71007Y-55264D01*
X70965Y-55365D01*
X70965Y-55409D01*
X70954Y-55405D01*
X70845Y-55404D01*
X70744Y-55446D01*
X70667Y-55524D01*
X70625Y-55625D01*
X70624Y-55734D01*
X70666Y-55835D01*
X70744Y-55912D01*
X70845Y-55954D01*
X70954Y-55955D01*
X71025Y-55925D01*
X71024Y-56034D01*
X71066Y-56135D01*
X71100Y-56168D01*
X71100Y-56267D01*
X71091Y-56258D01*
X71074Y-56247D01*
X71073Y-56244D01*
X70995Y-56167D01*
X70894Y-56125D01*
X70887Y-56125D01*
X70500Y-55737D01*
X70500Y-55588D01*
X70532Y-55555D01*
X70574Y-55454D01*
X70575Y-55345D01*
X70551Y-55287D01*
X70607Y-55230D01*
X70649Y-55129D01*
X70650Y-55020D01*
X70608Y-54919D01*
X70530Y-54842D01*
X70429Y-54800D01*
X70382Y-54800D01*
X69941Y-54358D01*
X69876Y-54315D01*
X69800Y-54300D01*
X69613Y-54300D01*
X69580Y-54267D01*
X69479Y-54225D01*
X69370Y-54224D01*
X69269Y-54266D01*
X69192Y-54344D01*
X69150Y-54445D01*
X69149Y-54554D01*
X69191Y-54655D01*
X69269Y-54732D01*
X69370Y-54774D01*
X69479Y-54775D01*
X69580Y-54733D01*
X69613Y-54700D01*
X69717Y-54700D01*
X70099Y-55082D01*
X70099Y-55129D01*
X70123Y-55187D01*
X70111Y-55200D01*
X69282Y-55200D01*
X69075Y-54992D01*
X69075Y-54945D01*
X69033Y-54844D01*
X68955Y-54767D01*
X68854Y-54725D01*
X68745Y-54724D01*
X68644Y-54766D01*
X68567Y-54844D01*
X68525Y-54945D01*
X68524Y-55054D01*
X68566Y-55155D01*
X68644Y-55232D01*
X68745Y-55274D01*
X68792Y-55274D01*
X69058Y-55541D01*
X69058Y-55541D01*
X69101Y-55570D01*
X69123Y-55584D01*
X69123Y-55584D01*
X69199Y-55599D01*
X69200Y-55600D01*
X70100Y-55600D01*
X70100Y-55820D01*
X70115Y-55896D01*
X70158Y-55961D01*
X70565Y-56367D01*
X70564Y-56454D01*
X70606Y-56555D01*
X70684Y-56632D01*
X70785Y-56674D01*
X70894Y-56675D01*
X70920Y-56664D01*
X70920Y-56849D01*
X70935Y-56926D01*
X70978Y-56991D01*
X71407Y-57420D01*
X69662Y-57420D01*
X69455Y-57212D01*
X69455Y-57165D01*
X69413Y-57064D01*
X69335Y-56987D01*
X69234Y-56945D01*
X69125Y-56944D01*
X69024Y-56986D01*
X68947Y-57064D01*
X68905Y-57165D01*
X68904Y-57274D01*
X68946Y-57375D01*
X69024Y-57452D01*
X69125Y-57494D01*
X69172Y-57494D01*
X69438Y-57761D01*
X69438Y-57761D01*
X69481Y-57790D01*
X69503Y-57804D01*
X69503Y-57804D01*
X69579Y-57819D01*
X69580Y-57820D01*
X71369Y-57820D01*
X71304Y-57846D01*
X71271Y-57880D01*
X67070Y-57880D01*
X67034Y-57865D01*
X66925Y-57864D01*
X66824Y-57906D01*
X66747Y-57984D01*
X66705Y-58085D01*
X66704Y-58194D01*
X66735Y-58267D01*
X65430Y-58269D01*
X65430Y-56834D01*
X65534Y-56835D01*
X65635Y-56793D01*
X65712Y-56715D01*
X65754Y-56614D01*
X65755Y-56505D01*
X65713Y-56404D01*
X65680Y-56371D01*
X65680Y-56320D01*
X65679Y-56319D01*
X65664Y-56243D01*
X65664Y-56243D01*
X65650Y-56221D01*
X65621Y-56178D01*
X65621Y-56178D01*
X65430Y-55987D01*
X65430Y-55893D01*
X65455Y-55883D01*
X65532Y-55805D01*
X65574Y-55704D01*
X65575Y-55595D01*
X65533Y-55494D01*
X65455Y-55417D01*
X65430Y-55406D01*
X65430Y-55302D01*
X65449Y-55254D01*
X65450Y-55145D01*
X65430Y-55097D01*
X65430Y-53970D01*
X76250Y-53970D01*
X76250Y-58250D01*
M02*
