G04 (created by PCBNEW (2013-mar-13)-testing) date Tue 26 Mar 2013 09:26:07 PM EDT*
%MOIN*%
G04 Gerber Fmt 3.4, Leading zero omitted, Abs format*
%FSLAX34Y34*%
G01*
G70*
G90*
G04 APERTURE LIST*
%ADD10C,0.006*%
%ADD11R,0.011811X0.06*%
%ADD12R,0.06X0.011811*%
%ADD13R,0.0551181X0.0472441*%
%ADD14R,0.0551181X0.0826772*%
%ADD15R,0.3X0.06*%
%ADD16R,0.26X0.04*%
%ADD17R,0.025X0.045*%
%ADD18R,0.045X0.025*%
G04 APERTURE END LIST*
G54D10*
G54D11*
X70825Y-54423D03*
X70628Y-54423D03*
X70431Y-54423D03*
X70234Y-54423D03*
X70037Y-54423D03*
X69840Y-54423D03*
X71021Y-54423D03*
X71218Y-54423D03*
X71415Y-54423D03*
X71612Y-54423D03*
X71809Y-54423D03*
X70825Y-57376D03*
X70628Y-57376D03*
X70431Y-57376D03*
X70234Y-57376D03*
X70037Y-57376D03*
X69840Y-57376D03*
X71021Y-57376D03*
X71218Y-57376D03*
X71415Y-57376D03*
X71612Y-57376D03*
X71809Y-57376D03*
G54D12*
X69348Y-55900D03*
X72301Y-55900D03*
X69348Y-56096D03*
X72301Y-56096D03*
X72301Y-56293D03*
X69348Y-56293D03*
X69348Y-56490D03*
X72301Y-56490D03*
X72301Y-56687D03*
X69348Y-56687D03*
X69348Y-56884D03*
X72301Y-56884D03*
X72301Y-55703D03*
X69348Y-55703D03*
X69348Y-55506D03*
X72301Y-55506D03*
X72301Y-55309D03*
X69348Y-55309D03*
X69348Y-55112D03*
X72301Y-55112D03*
X72301Y-54915D03*
X69348Y-54915D03*
G54D13*
X66783Y-56990D03*
X65916Y-56990D03*
X65916Y-57659D03*
X66783Y-57659D03*
G54D14*
X74294Y-57891D03*
X74294Y-54308D03*
X76065Y-57891D03*
X76065Y-54308D03*
G54D15*
X63600Y-57440D03*
G54D16*
X63600Y-56440D03*
X63600Y-55640D03*
G54D15*
X63600Y-54640D03*
G54D17*
X65825Y-56175D03*
X66425Y-56175D03*
X67520Y-56020D03*
X68120Y-56020D03*
X67520Y-55240D03*
X68120Y-55240D03*
X65825Y-55550D03*
X66425Y-55550D03*
X70520Y-58120D03*
X71120Y-58120D03*
X68675Y-54550D03*
X68075Y-54550D03*
G54D18*
X67575Y-56625D03*
X67575Y-57225D03*
G54D17*
X68850Y-57650D03*
X69450Y-57650D03*
X67400Y-57925D03*
X68000Y-57925D03*
G54D18*
X68275Y-56625D03*
X68275Y-57225D03*
X66875Y-54375D03*
X66875Y-54975D03*
X73210Y-57315D03*
X73210Y-56715D03*
G54D17*
X66275Y-54625D03*
X65675Y-54625D03*
M02*
