G04 (created by PCBNEW (2013-mar-13)-testing) date Tue 26 Mar 2013 09:26:07 PM EDT*
%MOIN*%
G04 Gerber Fmt 3.4, Leading zero omitted, Abs format*
%FSLAX34Y34*%
G01*
G70*
G90*
G04 APERTURE LIST*
%ADD10C,0.006*%
%ADD11C,0.00590551*%
%ADD12C,0.008*%
%ADD13C,0.005*%
%ADD14C,0.0045*%
G04 APERTURE END LIST*
G54D10*
G54D11*
X72202Y-54522D02*
X72202Y-57277D01*
X69447Y-57277D02*
X72202Y-57277D01*
X69447Y-54522D02*
X69447Y-57277D01*
X72202Y-54522D02*
X69447Y-54522D01*
G54D12*
X70362Y-55187D02*
G75*
G03X70362Y-55187I-250J0D01*
G74*
G01*
G54D13*
X65675Y-55925D02*
X66575Y-55925D01*
X66575Y-55925D02*
X66575Y-56425D01*
X66575Y-56425D02*
X65675Y-56425D01*
X65675Y-56425D02*
X65675Y-55925D01*
X67370Y-55770D02*
X68270Y-55770D01*
X68270Y-55770D02*
X68270Y-56270D01*
X68270Y-56270D02*
X67370Y-56270D01*
X67370Y-56270D02*
X67370Y-55770D01*
X67370Y-54990D02*
X68270Y-54990D01*
X68270Y-54990D02*
X68270Y-55490D01*
X68270Y-55490D02*
X67370Y-55490D01*
X67370Y-55490D02*
X67370Y-54990D01*
X65675Y-55300D02*
X66575Y-55300D01*
X66575Y-55300D02*
X66575Y-55800D01*
X66575Y-55800D02*
X65675Y-55800D01*
X65675Y-55800D02*
X65675Y-55300D01*
X70370Y-57870D02*
X71270Y-57870D01*
X71270Y-57870D02*
X71270Y-58370D01*
X71270Y-58370D02*
X70370Y-58370D01*
X70370Y-58370D02*
X70370Y-57870D01*
X68825Y-54800D02*
X67925Y-54800D01*
X67925Y-54800D02*
X67925Y-54300D01*
X67925Y-54300D02*
X68825Y-54300D01*
X68825Y-54300D02*
X68825Y-54800D01*
X67825Y-56475D02*
X67825Y-57375D01*
X67825Y-57375D02*
X67325Y-57375D01*
X67325Y-57375D02*
X67325Y-56475D01*
X67325Y-56475D02*
X67825Y-56475D01*
X68700Y-57400D02*
X69600Y-57400D01*
X69600Y-57400D02*
X69600Y-57900D01*
X69600Y-57900D02*
X68700Y-57900D01*
X68700Y-57900D02*
X68700Y-57400D01*
X67250Y-57675D02*
X68150Y-57675D01*
X68150Y-57675D02*
X68150Y-58175D01*
X68150Y-58175D02*
X67250Y-58175D01*
X67250Y-58175D02*
X67250Y-57675D01*
X68525Y-56475D02*
X68525Y-57375D01*
X68525Y-57375D02*
X68025Y-57375D01*
X68025Y-57375D02*
X68025Y-56475D01*
X68025Y-56475D02*
X68525Y-56475D01*
X67125Y-54225D02*
X67125Y-55125D01*
X67125Y-55125D02*
X66625Y-55125D01*
X66625Y-55125D02*
X66625Y-54225D01*
X66625Y-54225D02*
X67125Y-54225D01*
X72960Y-57465D02*
X72960Y-56565D01*
X72960Y-56565D02*
X73460Y-56565D01*
X73460Y-56565D02*
X73460Y-57465D01*
X73460Y-57465D02*
X72960Y-57465D01*
X66425Y-54875D02*
X65525Y-54875D01*
X65525Y-54875D02*
X65525Y-54375D01*
X65525Y-54375D02*
X66425Y-54375D01*
X66425Y-54375D02*
X66425Y-54875D01*
X65201Y-58242D02*
X65501Y-58042D01*
X65201Y-58042D02*
X65501Y-58242D01*
X65501Y-57771D02*
X65501Y-57942D01*
X65501Y-57857D02*
X65201Y-57857D01*
X65244Y-57885D01*
X65272Y-57914D01*
X65287Y-57942D01*
G54D14*
X65560Y-56292D02*
X65360Y-56292D01*
X65360Y-56250D01*
X65370Y-56224D01*
X65389Y-56207D01*
X65408Y-56198D01*
X65446Y-56190D01*
X65475Y-56190D01*
X65513Y-56198D01*
X65532Y-56207D01*
X65551Y-56224D01*
X65560Y-56250D01*
X65560Y-56292D01*
X65380Y-56121D02*
X65370Y-56112D01*
X65360Y-56095D01*
X65360Y-56052D01*
X65370Y-56035D01*
X65380Y-56027D01*
X65399Y-56018D01*
X65418Y-56018D01*
X65446Y-56027D01*
X65560Y-56130D01*
X65560Y-56018D01*
X67260Y-56050D02*
X67165Y-56110D01*
X67260Y-56152D02*
X67060Y-56152D01*
X67060Y-56084D01*
X67070Y-56067D01*
X67080Y-56058D01*
X67099Y-56050D01*
X67127Y-56050D01*
X67146Y-56058D01*
X67156Y-56067D01*
X67165Y-56084D01*
X67165Y-56152D01*
X67127Y-55895D02*
X67260Y-55895D01*
X67051Y-55938D02*
X67194Y-55981D01*
X67194Y-55870D01*
X67260Y-55450D02*
X67165Y-55510D01*
X67260Y-55552D02*
X67060Y-55552D01*
X67060Y-55484D01*
X67070Y-55467D01*
X67080Y-55458D01*
X67099Y-55450D01*
X67127Y-55450D01*
X67146Y-55458D01*
X67156Y-55467D01*
X67165Y-55484D01*
X67165Y-55552D01*
X67060Y-55287D02*
X67060Y-55372D01*
X67156Y-55381D01*
X67146Y-55372D01*
X67137Y-55355D01*
X67137Y-55312D01*
X67146Y-55295D01*
X67156Y-55287D01*
X67175Y-55278D01*
X67222Y-55278D01*
X67241Y-55287D01*
X67251Y-55295D01*
X67260Y-55312D01*
X67260Y-55355D01*
X67251Y-55372D01*
X67241Y-55381D01*
X65580Y-55692D02*
X65380Y-55692D01*
X65380Y-55650D01*
X65390Y-55624D01*
X65409Y-55607D01*
X65428Y-55598D01*
X65466Y-55590D01*
X65495Y-55590D01*
X65533Y-55598D01*
X65552Y-55607D01*
X65571Y-55624D01*
X65580Y-55650D01*
X65580Y-55692D01*
X65580Y-55418D02*
X65580Y-55521D01*
X65580Y-55470D02*
X65380Y-55470D01*
X65409Y-55487D01*
X65428Y-55504D01*
X65438Y-55521D01*
X70260Y-58130D02*
X70165Y-58190D01*
X70260Y-58232D02*
X70060Y-58232D01*
X70060Y-58164D01*
X70070Y-58147D01*
X70080Y-58138D01*
X70099Y-58130D01*
X70127Y-58130D01*
X70146Y-58138D01*
X70156Y-58147D01*
X70165Y-58164D01*
X70165Y-58232D01*
X70260Y-57958D02*
X70260Y-58061D01*
X70260Y-58010D02*
X70060Y-58010D01*
X70089Y-58027D01*
X70108Y-58044D01*
X70118Y-58061D01*
X68350Y-54181D02*
X68341Y-54191D01*
X68315Y-54200D01*
X68298Y-54200D01*
X68272Y-54191D01*
X68255Y-54172D01*
X68247Y-54153D01*
X68238Y-54115D01*
X68238Y-54086D01*
X68247Y-54048D01*
X68255Y-54029D01*
X68272Y-54010D01*
X68298Y-54000D01*
X68315Y-54000D01*
X68341Y-54010D01*
X68350Y-54020D01*
X68521Y-54200D02*
X68418Y-54200D01*
X68470Y-54200D02*
X68470Y-54000D01*
X68452Y-54029D01*
X68435Y-54048D01*
X68418Y-54058D01*
X67201Y-56510D02*
X67211Y-56518D01*
X67220Y-56544D01*
X67220Y-56561D01*
X67211Y-56587D01*
X67192Y-56604D01*
X67173Y-56612D01*
X67135Y-56621D01*
X67106Y-56621D01*
X67068Y-56612D01*
X67049Y-56604D01*
X67030Y-56587D01*
X67020Y-56561D01*
X67020Y-56544D01*
X67030Y-56518D01*
X67040Y-56510D01*
X67040Y-56441D02*
X67030Y-56432D01*
X67020Y-56415D01*
X67020Y-56372D01*
X67030Y-56355D01*
X67040Y-56347D01*
X67059Y-56338D01*
X67078Y-56338D01*
X67106Y-56347D01*
X67220Y-56450D01*
X67220Y-56338D01*
X69130Y-58200D02*
X69070Y-58105D01*
X69027Y-58200D02*
X69027Y-58000D01*
X69095Y-58000D01*
X69112Y-58010D01*
X69121Y-58020D01*
X69130Y-58039D01*
X69130Y-58067D01*
X69121Y-58086D01*
X69112Y-58096D01*
X69095Y-58105D01*
X69027Y-58105D01*
X69198Y-58020D02*
X69207Y-58010D01*
X69224Y-58000D01*
X69267Y-58000D01*
X69284Y-58010D01*
X69292Y-58020D01*
X69301Y-58039D01*
X69301Y-58058D01*
X69292Y-58086D01*
X69190Y-58200D01*
X69301Y-58200D01*
X68421Y-58010D02*
X68431Y-58018D01*
X68440Y-58044D01*
X68440Y-58061D01*
X68431Y-58087D01*
X68412Y-58104D01*
X68393Y-58112D01*
X68355Y-58121D01*
X68326Y-58121D01*
X68288Y-58112D01*
X68269Y-58104D01*
X68250Y-58087D01*
X68240Y-58061D01*
X68240Y-58044D01*
X68250Y-58018D01*
X68260Y-58010D01*
X68240Y-57950D02*
X68240Y-57838D01*
X68317Y-57898D01*
X68317Y-57872D01*
X68326Y-57855D01*
X68336Y-57847D01*
X68355Y-57838D01*
X68402Y-57838D01*
X68421Y-57847D01*
X68431Y-57855D01*
X68440Y-57872D01*
X68440Y-57924D01*
X68431Y-57941D01*
X68421Y-57950D01*
X68821Y-56630D02*
X68831Y-56638D01*
X68840Y-56664D01*
X68840Y-56681D01*
X68831Y-56707D01*
X68812Y-56724D01*
X68793Y-56732D01*
X68755Y-56741D01*
X68726Y-56741D01*
X68688Y-56732D01*
X68669Y-56724D01*
X68650Y-56707D01*
X68640Y-56681D01*
X68640Y-56664D01*
X68650Y-56638D01*
X68660Y-56630D01*
X68707Y-56475D02*
X68840Y-56475D01*
X68631Y-56518D02*
X68774Y-56561D01*
X68774Y-56450D01*
X67381Y-54710D02*
X67391Y-54718D01*
X67400Y-54744D01*
X67400Y-54761D01*
X67391Y-54787D01*
X67372Y-54804D01*
X67353Y-54812D01*
X67315Y-54821D01*
X67286Y-54821D01*
X67248Y-54812D01*
X67229Y-54804D01*
X67210Y-54787D01*
X67200Y-54761D01*
X67200Y-54744D01*
X67210Y-54718D01*
X67220Y-54710D01*
X67200Y-54547D02*
X67200Y-54632D01*
X67296Y-54641D01*
X67286Y-54632D01*
X67277Y-54615D01*
X67277Y-54572D01*
X67286Y-54555D01*
X67296Y-54547D01*
X67315Y-54538D01*
X67362Y-54538D01*
X67381Y-54547D01*
X67391Y-54555D01*
X67400Y-54572D01*
X67400Y-54615D01*
X67391Y-54632D01*
X67381Y-54641D01*
X73190Y-57800D02*
X73130Y-57705D01*
X73087Y-57800D02*
X73087Y-57600D01*
X73155Y-57600D01*
X73172Y-57610D01*
X73181Y-57620D01*
X73190Y-57639D01*
X73190Y-57667D01*
X73181Y-57686D01*
X73172Y-57696D01*
X73155Y-57705D01*
X73087Y-57705D01*
X73250Y-57600D02*
X73361Y-57600D01*
X73301Y-57677D01*
X73327Y-57677D01*
X73344Y-57686D01*
X73352Y-57696D01*
X73361Y-57715D01*
X73361Y-57762D01*
X73352Y-57781D01*
X73344Y-57791D01*
X73327Y-57800D01*
X73275Y-57800D01*
X73258Y-57791D01*
X73250Y-57781D01*
X65930Y-54260D02*
X65844Y-54260D01*
X65844Y-54060D01*
X66084Y-54260D02*
X65981Y-54260D01*
X66032Y-54260D02*
X66032Y-54060D01*
X66015Y-54089D01*
X65998Y-54108D01*
X65981Y-54118D01*
M02*
